<svg version="1.2" xmlns="http://www.w3.org/2000/svg" viewBox="0 0 561 461" width="561" height="461">
	<title>hero-svg</title>
	<defs>
		<clipPath clipPathUnits="userSpaceOnUse" id="cp1">
			<path d="m266.54 415h36v36h-36z"/>
		</clipPath>
		<clipPath clipPathUnits="userSpaceOnUse" id="cp2">
			<path d="m81.27 301l49.72 49.73-49.72 49.73-49.73-49.73z"/>
		</clipPath>
	</defs>
	<style>
		.s0 { fill: #000000;stroke: #ffffff;stroke-miterlimit:10 } 
		.s1 { fill: none;stroke: #000000 } 
		.s2 { fill: #b9ff66 } 
		.s3 { fill: #000000 } 
		.s4 { fill: #ffffff } 
	</style>
	<g id="Clip-Path" clip-path="url(#cp1)">
		<g>
			<path class="s0" d="m284.5 420.5l17.6-5.2-5.1 17.7 5.1 17.6-17.6-5.1-17.6 5.1 5.2-17.6-5.2-17.7z"/>
		</g>
	</g>
	<g id="Clip-Path" clip-path="url(#cp2)">
		<g>
			<path class="s0" d="m98.5 333.5l31.5 17.2-31.5 17.2-17.2 31.5-17.3-31.5-31.4-17.2 31.4-17.2 17.3-31.5z"/>
		</g>
	</g>
	<path fill-rule="evenodd" class="s1" d="m538.1 377.3c-1.9 3.5-5.4 6-10.5 7.5-5.1 1.6-11.7 2.1-19.7 1.8-15.9-0.7-37.1-5.1-62.1-12.7-50-15.3-115.2-43.7-183.6-81.4-68.5-37.8-127.2-77.8-166.9-111.9-19.8-17.1-34.8-32.7-43.9-45.8-4.5-6.5-7.5-12.4-8.9-17.6-1.5-5.1-1.2-9.4 0.7-12.9 1.9-3.4 5.4-5.9 10.5-7.5 5.1-1.5 11.7-2.1 19.7-1.7 15.9 0.6 37.1 5 62.1 12.7 50 15.3 115.2 43.6 183.6 81.4 68.5 37.7 127.2 77.7 166.8 111.9 19.8 17 34.9 32.6 43.9 45.7 4.6 6.6 7.6 12.5 9 17.6 1.4 5.2 1.2 9.5-0.7 12.9z"/>
	<path fill-rule="evenodd" class="s1" d="m517.9 414c-1.9 3.5-5.5 5.9-10.5 7.5-5.1 1.5-11.8 2.1-19.7 1.8-15.9-0.7-37.1-5.1-62.2-12.8-50-15.3-115.1-43.6-183.6-81.4-68.4-37.7-127.1-77.7-166.8-111.9-19.8-17-34.8-32.6-43.9-45.7-4.5-6.6-7.6-12.5-9-17.6-1.4-5.1-1.2-9.5 0.7-12.9 1.9-3.5 5.5-5.9 10.6-7.5 5.1-1.5 11.7-2.1 19.6-1.8 16 0.7 37.2 5.1 62.2 12.8 50 15.3 115.2 43.6 183.6 81.4 68.4 37.7 127.2 77.7 166.8 111.9 19.8 17 34.8 32.6 43.9 45.7 4.5 6.6 7.6 12.5 9 17.6 1.4 5.1 1.2 9.5-0.7 12.9z"/>
	<path fill-rule="evenodd" class="s1" d="m497.7 450.7c-1.9 3.4-5.5 5.9-10.6 7.5-5.1 1.5-11.7 2.1-19.6 1.7-16-0.6-37.2-5-62.2-12.7-50-15.3-115.2-43.6-183.6-81.4-68.4-37.7-127.2-77.7-166.8-111.9-19.8-17-34.9-32.6-43.9-45.7-4.6-6.6-7.6-12.5-9-17.6-1.4-5.2-1.2-9.5 0.7-12.9 1.9-3.5 5.4-6 10.5-7.5 5.1-1.6 11.7-2.1 19.7-1.8 15.9 0.7 37.1 5.1 62.1 12.7 50.1 15.3 115.2 43.7 183.7 81.4 68.4 37.8 127.1 77.8 166.8 111.9 19.8 17.1 34.8 32.7 43.9 45.8 4.5 6.5 7.6 12.4 9 17.6 1.4 5.1 1.2 9.4-0.7 12.9z"/>
	<path class="s2" d="m105 108c-8.5 0-15.5-6.9-15.5-15.5 0-8.6 7-15.5 15.5-15.5 8.6 0 15.5 6.9 15.5 15.5 0 8.6-6.9 15.5-15.5 15.5z"/>
	<path class="s2" d="m394.5 433c-5.5 0-10-4.5-10-10 0-5.5 4.5-10 10-10 5.6 0 10 4.5 10 10 0 5.5-4.4 10-10 10z"/>
	<path class="s3" d="m55 76c-13 0-23.5-10.5-23.5-23.5 0-13 10.5-23.5 23.5-23.5 13 0 23.5 10.5 23.5 23.5 0 13-10.5 23.5-23.5 23.5z"/>
	<path class="s3" d="m279.5 371.6c-6.3 2.1-13.5-2.1-16-9.5l-39-114.3 22.8-7.8 39 114.4c2.5 7.4-0.5 15-6.8 17.2z"/>
	<path fill-rule="evenodd" class="s3" d="m276.1 373c-1.8 0-3.7-0.4-5.5-1.3-3.7-1.8-6.6-5.2-8-9.4l-39-114.2c-0.1-0.4 0.1-1 0.6-1.1l22.8-7.8q0.3-0.1 0.6 0 0.3 0.2 0.5 0.5l39 114.5c2.6 7.7-0.7 15.9-7.4 18.2-1.1 0.4-2.3 0.6-3.6 0.6zm-50.5-124.6l38.7 113.4c1.3 3.7 3.9 6.8 7.1 8.3 2.5 1.3 5.3 1.5 7.8 0.7 5.8-2 8.6-9.2 6.3-16.1l-38.8-113.6z"/>
	<path class="s2" d="m243.3 141.4l-73.8 52.6-28.7 29.8-11.3 19.9v0.2c-2.2 3.4-0.9 11.4 3.3 19.5 4.1 8 9.9 13.6 13.9 13.9h-0.1l21.7 2.4 40.5-6.5 86-30.8 107 18.4h0.7c-26.9-5-63.1-40.9-89.5-91.7-26.3-50.8-34.7-101-23.1-125.7h-0.1l-46 96.7z"/>
	<path class="s4" d="m420.3 258.6c26.4-13.7 21.3-76-11.4-139-32.8-63.1-80.7-103.1-107.2-89.3-26.4 13.7-21.3 75.9 11.4 139 32.8 63 80.7 103 107.2 89.3z"/>
	<path fill-rule="evenodd" class="s3" d="m408.6 262.2c-11.5 0-25.3-6.4-40.2-18.9-20.4-17-40.3-43.2-56.2-73.9-24-46.3-33.9-93.9-25.2-121.1 2.9-9.1 7.8-15.5 14.4-18.9 13.2-6.7 31.7-1 52.2 16.2 20.3 17 40.2 43.2 56.1 73.8 24 46.4 33.9 93.9 25.2 121.2-2.9 9.1-7.7 15.4-14.4 18.8-3.5 1.9-7.5 2.8-11.9 2.8zm-95.2-233.8c-4.1 0-7.8 0.8-11.2 2.6-6.2 3.2-10.7 9.2-13.5 17.9-8.6 26.8 1.3 73.8 25.1 119.8 32.4 62.6 80 102.6 106 89.3 6.2-3.2 10.8-9.2 13.5-17.9 8.6-26.8-1.3-73.9-25.1-119.9-28.2-54.4-67.8-91.8-94.8-91.8z"/>
	<path class="s3" d="m408.6 262.2c-11.5 0-25.3-6.4-40.2-18.9-20.4-17-40.3-43.2-56.2-73.9-24-46.3-33.9-93.9-25.2-121.1 2.9-9.1 7.8-15.5 14.4-18.9 8.8-4.5 20.3-3.4 33.3 3.3 12.4 6.4 25.8 17.7 38.9 32.7 0.3 0.3 0.3 0.9-0.1 1.2-0.3 0.3-0.9 0.3-1.2-0.1-26.5-30.4-53.4-44.1-70.1-35.5-6.2 3.2-10.7 9.2-13.5 17.9-8.6 26.8 1.3 73.8 25.1 119.8 28.2 54.4 67.9 91.8 94.8 91.8 4 0 7.8-0.8 11.2-2.5 6.2-3.2 10.7-9.2 13.5-17.9 8.5-26.8-1.3-73.9-25.1-119.9-7.1-13.7-15.1-26.6-23.7-38.3-0.3-0.4-0.2-0.9 0.2-1.2 0.4-0.3 1-0.2 1.2 0.2 8.7 11.8 16.7 24.8 23.8 38.5 24 46.4 33.9 93.9 25.2 121.2-2.9 9-7.7 15.4-14.4 18.8-3.5 1.9-7.5 2.8-11.9 2.8z"/>
	<path class="s2" d="m360.3 178.3c6.1-3.1 4.9-17.5-2.6-32.1-7.6-14.6-18.7-23.9-24.8-20.7-6.2 3.2-5 17.6 2.6 32.2 7.6 14.6 18.7 23.8 24.8 20.6z"/>
	<path fill-rule="evenodd" class="s2" d="m357.6 179.8c-6.7 0-16.1-8.6-22.9-21.8-5.6-10.9-7.9-22.1-5.9-28.5 0.8-2.3 2-3.9 3.7-4.8 6.6-3.4 18 5.9 25.9 21.1 5.7 10.9 8 22.1 5.9 28.6-0.7 2.3-1.9 3.9-3.6 4.7q-1.4 0.7-3.1 0.7zm-22.1-54.1c-0.8 0-1.6 0.2-2.2 0.5q-2 1-2.9 3.8c-1.9 6 0.4 16.7 5.8 27.2 7.2 14 18.1 23.3 23.7 20.4q1.9-1 2.8-3.7c1.9-6.1-0.4-16.8-5.8-27.3-6.3-12.2-15.4-20.9-21.4-20.9z"/>
	<path class="s3" d="m402.7 247.6c-10.1 0-22.2-5.7-35.3-16.6-17.8-14.9-35.3-37.8-49.1-64.6-21.1-40.6-29.7-82.2-22.1-106.1 2.5-8 6.8-13.6 12.6-16.6 13.4-6.8 33.1 1.1 54.1 21.7 0.4 0.4 0.4 0.9 0 1.2-0.3 0.4-0.9 0.4-1.2 0-20.4-20.1-39.4-27.9-52.1-21.3-5.4 2.7-9.3 7.9-11.8 15.5-7.4 23.4 1.2 64.6 22 104.8 24.6 47.6 59.3 80.3 82.9 80.3q5.2 0 9.7-2.3c5.4-2.8 9.4-8 11.8-15.5 7.5-23.5-1.1-64.6-22-104.8-6.3-12.2-13.3-23.6-20.9-33.9-0.3-0.4-0.2-0.9 0.2-1.2 0.4-0.2 0.9-0.2 1.2 0.2 7.7 10.4 14.7 21.9 21.1 34.1 21 40.6 29.7 82.2 22.1 106.1-2.6 8-6.8 13.5-12.7 16.5q-4.8 2.5-10.5 2.5z"/>
	<path fill-rule="evenodd" class="s3" d="m168.3 280.5q-0.1 0-0.1 0l-21.6-2.3q-0.2 0-0.4-0.1c-4.4-0.8-10.1-6.4-14.2-14.3-4.4-8.4-5.7-16.5-3.3-20.3l0.1-0.2 11.2-19.9q0.1-0.1 0.2-0.2l28.7-29.8q0-0.1 0.1-0.1l73.5-52.5 46.5-97.8q0.2-0.3 0.5-0.4 0.4-0.2 0.7 0c0.4 0.2 0.6 0.7 0.4 1.1-11.8 25.3-2.4 75.5 23.2 124.9 25.6 49.6 61.4 86.2 88.9 91.3 0.4 0.1 0.7 0.4 0.7 0.9 0 0.4-0.4 0.8-0.9 0.8h-0.7q-0.1 0-0.1 0l-106.8-18.3-85.8 30.7c0 0-0.1 0-0.1 0l-40.6 6.5q0 0-0.1 0zm-21.1-4l21.1 2.3 40.3-6.5 86-30.7c0.2-0.1 0.3-0.1 0.5-0.1l96 16.5c-25.9-11.4-56.3-45.1-78.8-88.5-22.3-43.2-32.3-87-26.8-114.7l-41.5 86.9q-0.1 0.2-0.2 0.3l-73.7 52.7-28.6 29.6-11.3 20c0 0 0 0.1 0 0.1-2 3.1-0.7 11 3.3 18.6 3.9 7.5 9.5 13.1 13.3 13.4q0.2 0 0.4 0.1z"/>
	<path class="s4" d="m243.4 141.1l46.4-97.8h0.1c-11.6 24.8-3.1 75 23.1 125.7 26.4 50.9 62.6 86.8 89.6 91.7h-0.8l-106.7-18.3-2.5-0.4c-12.4-2.2-29-18.4-40.9-41.4-12.1-23.6-14.3-47.2-8.9-58.4z"/>
	<path fill-rule="evenodd" class="s3" d="m402.6 261.6c-0.1 0 0 0 0 0h-0.8q-0.1 0-0.1 0l-106.8-18.3-2.5-0.5c-13.1-2.3-29.7-19.1-41.4-41.8-13.3-25.7-14-48.7-9-59.1l0.6-1.2 46.5-97.7q0.2-0.3 0.5-0.4 0.4-0.1 0.7 0c0.4 0.2 0.6 0.7 0.4 1.2-11.8 25.2-2.5 75.4 23.1 124.9 25.7 49.5 61.4 86.2 89 91.2 0.4 0.1 0.7 0.5 0.7 1-0.1 0.3-0.5 0.7-0.9 0.7zm-117.2-206.8l-41.2 86.7-0.6 1.1c-5 10.4-3.6 33.5 8.9 57.6 11.5 22.3 27.6 38.7 40.2 40.9l2.5 0.4 95.9 16.5c-26-11.4-56.3-45.1-78.8-88.5-22.4-43.2-32.4-87-26.9-114.7z"/>
	<path class="s3" d="m167.1 280.4q0 0 0 0l-20.6-2.2q-0.1 0-0.3-0.1c-4.5-0.7-10.1-6.4-14.2-14.3-4.4-8.4-5.7-16.5-3.3-20.3l0.1-0.2 11.2-19.9c0.3-0.5 0.8-0.6 1.2-0.3 0.4 0.2 0.6 0.7 0.3 1.1l-11.3 20.1c0 0 0 0.1 0 0.1-2 3.1-0.7 11 3.3 18.6 3.9 7.5 9.5 13.1 13.3 13.4 0.1 0 0.3 0 0.4 0.1l20 2.2c0.5 0 0.8 0.4 0.8 0.9-0.1 0.4-0.4 0.8-0.9 0.8z"/>
	<path class="s4" d="m168.5 279.5c-6.7-0.4-16-9.9-22.7-22.9-7.2-13.8-8.9-28.1-4.5-33.2l-11.7 20.3-0.1 0.2c-2.2 3.4-0.9 11.4 3.3 19.5 4.1 8 9.9 13.6 13.9 13.9h-0.1z"/>
	<path fill-rule="evenodd" class="s3" d="m168.5 280.4c0 0 0 0-0.1 0-0.1 0-0.3 0-0.5 0l-21.4-2.2q-0.1 0-0.3-0.1c-4.5-0.7-10.1-6.4-14.2-14.3-4.4-8.4-5.7-16.5-3.3-20.3l0.1-0.2 10.3-17.9q0.5-1.5 1.5-2.7c0.3-0.3 0.8-0.4 1.1-0.1 0.4 0.3 0.5 0.7 0.3 1.1l-1.5 2.5c-2.3 6.2 0 18.4 5.9 29.9 6.5 12.5 15.3 21.6 21.6 22.4l0.5 0.1c0.4 0 0.8 0.4 0.7 0.9 0.1 0.5-0.3 0.9-0.7 0.9zm-21.3-3.9l14.9 1.5c-5.7-3.6-12.1-11.2-17.1-21-4.9-9.5-7.4-19.3-7-26.3l-7.8 13.6c0 0 0 0.1 0 0.1-2 3.1-0.7 11 3.3 18.6 3.9 7.5 9.5 13.1 13.3 13.4 0.1 0 0.3 0 0.4 0.1z"/>
	<path class="s3" d="m207.3 273.4l1.8-0.4c-9.4 2-24.1-12.1-34.5-32.1-10.6-20.5-12.6-40.9-5-46.9l-1 1-27.2 28.2c-4.5 5.1-2.9 19.4 4.4 33.3 6.9 13.4 16.7 23 23.4 23z"/>
	<path fill-rule="evenodd" class="s3" d="m169.2 280.4c-7.2 0-17.1-9.6-24.2-23.4-7.3-14.1-9.2-28.9-4.3-34.3l26.7-27.7q0.7-1 1.6-1.7c0.4-0.3 0.9-0.2 1.2 0.1 0.3 0.4 0.3 0.9 0 1.2l-1.5 1.6c-5.5 7.3-2.8 25.9 6.7 44.3 10.3 19.8 24.6 33.4 33.4 31.8l0.1-0.1c0.5-0.1 0.9 0.2 1 0.7 0.1 0.4-0.2 0.9-0.6 1q-0.1 0-0.2 0l-1.6 0.4-38.1 6c-0.1 0-0.2 0.1-0.2 0.1zm-4.1-80.6l-23.1 24.1c-4.3 4.8-2.4 19 4.5 32.3 6.8 13 16.3 22.4 22.7 22.4l33.6-5.3c-9-3.2-20.2-15.3-28.9-32-8.2-15.9-11.4-32-8.8-41.5z"/>
	<path class="s3" d="m332.9 125.5c-6.2 3.1-5.3 17.6 2.6 32.1 13.1 24.3 23.5 21.4 24.7 21 0.1 0 0.1 0 0 0l-22.5 18.2c-6.6-9.3-12.9-19.7-18.7-30.8-5.5-10.7-10.2-21.4-13.8-31.7z"/>
	<path fill-rule="evenodd" class="s3" d="m337.7 197.6q0 0-0.1 0-0.3 0-0.6-0.3c-6.7-9.5-13-20-18.7-30.9-5.5-10.5-10.2-21.2-13.9-31.8q-0.2-0.3 0-0.6 0.2-0.3 0.5-0.5l27.7-8.8c0.5-0.1 0.9 0.1 1.1 0.5 0.2 0.5 0 0.9-0.4 1.1q-2 1-2.9 4c-1.9 6.1 0.4 17 5.9 27 12.8 23.7 22.7 21 23.7 20.6 0.4-0.2 0.9 0 1.1 0.4 0.2 0.3 0.1 0.8-0.2 1.1l-22.6 18q-0.3 0.2-0.6 0.2zm-31.4-62.8c3.7 10.3 8.3 20.6 13.5 30.8 5.5 10.6 11.6 20.6 18.1 29.9l19.6-15.7c-4.5-0.2-12.9-3.6-22.8-21.8-5.7-10.5-8-21.6-6-28.3 0.3-0.9 0.6-1.6 1-2.3z"/>
	<path class="s3" d="m448.7 69.6c17.9-9.4 24.8-31.5 15.5-49.3-9.4-17.8-31.5-24.7-49.4-15.3-17.9 9.4-24.8 31.5-15.4 49.3 9.3 17.9 31.4 24.7 49.3 15.3z"/>
	<path class="s2" d="m550.3 71.6c13.1-13.1 13.1-34.4 0-47.5-13.1-13.1-34.4-13.1-47.5 0-13.1 13.1-13.1 34.4 0 47.5 13.1 13.1 34.4 13.1 47.5 0z"/>
	<path fill-rule="evenodd" class="s2" d="m526.5 82.3c-18.9 0-34.4-15.5-34.4-34.5 0-18.9 15.4-34.4 34.4-34.4 19 0 34.5 15.4 34.5 34.4 0 19-15.5 34.5-34.5 34.5zm0-67.2c-18 0-32.7 14.7-32.7 32.7 0 18.1 14.7 32.7 32.7 32.7 18 0 32.7-14.6 32.7-32.7 0-18-14.6-32.7-32.7-32.7z"/>
	<path class="s3" d="m535.6 51.2c-1.9 0-3.5 0.9-4.6 2.3l-11.3-4.4c0-0.2 0-0.3 0-0.5q0-0.4-0.1-0.8l11.6-5.4c1.1 1.3 2.7 2 4.4 2.1 3.2 0 5.9-2.7 5.9-5.9 0-3.3-2.6-5.9-5.9-5.9-3.2 0-5.9 2.6-5.9 5.9q0.1 0.4 0.1 0.8l-11.6 5.3c-1-1.2-2.6-2-4.3-2-3.3 0-5.9 2.6-5.9 5.9 0 3.2 2.6 5.9 5.9 5.9 1.8 0 3.5-0.9 4.6-2.3l11.3 4.4c0 0.2-0.1 0.3-0.1 0.4 0 3.3 2.7 6 5.9 6 3.2 0 5.9-2.7 5.9-5.9 0-3.3-2.7-5.9-5.9-5.9z"/>
	<path class="s3" d="m536.1 178c15.3-10.7 19.2-31.7 8.6-47-10.6-15.3-31.7-19-47-8.4-15.4 10.7-19.3 31.8-8.7 47 10.6 15.3 31.7 19.1 47.1 8.4z"/>
	<path class="s4" d="m508.4 166.4l-4.9-26.8c-0.3-1.4 1-2.5 2.3-2.1l29.2 8.2c1.5 0.5 1.8 2.4 0.6 3.3l-24.3 18.5c-1 0.9-2.6 0.3-2.9-1.1z"/>
	<path class="s2" d="m516.5 287.6c19-9.3 27-32 17.8-50.9-9.2-18.9-32-26.7-51-17.4-19 9.2-26.9 32-17.7 50.9 9.1 18.8 32 26.6 50.9 17.4z"/>
	<path fill-rule="evenodd" class="s3" d="m499.7 292.3c-4.1 0-8.2-0.6-12.2-2-9.9-3.2-17.9-10.1-22.5-19.5-4.6-9.2-5.3-19.8-2-29.6 6.9-20.4 29-31.5 49.4-24.7 9.9 3.3 17.9 10.2 22.5 19.5 4.6 9.3 5.3 19.8 2 29.7-5.5 16.3-20.9 26.6-37.2 26.6zm0.4-76c-15.6 0-30.3 9.8-35.5 25.4-3.2 9.5-2.5 19.5 1.9 28.4 4.4 8.9 12 15.5 21.5 18.6 19.5 6.5 40.7-4.1 47.2-23.5 3.2-9.4 2.5-19.5-1.9-28.4-4.4-8.9-12-15.5-21.5-18.6-3.9-1.3-7.8-1.9-11.7-1.9z"/>
	<path class="s3" d="m519.4 247.3c-0.4 9.5-16.5 31.7-20.3 36.9-0.4 0.6-1.3 0.5-1.6 0-2.4-4-10.5-17.1-14.7-27.8-1.6-4.2-2.7-8-2.6-10.7 0.5-10.9 9.6-19.3 20.4-18.8 10.8 0.5 19.2 9.5 18.8 20.4z"/>
	<path class="s2" d="m506.1 252.8c3.5-3.5 3.5-9.2 0-12.7-3.5-3.5-9.1-3.5-12.6 0-3.6 3.5-3.6 9.2 0 12.7 3.5 3.5 9.1 3.5 12.6 0z"/>
</svg>